<svg width="143" height="31" viewBox="0 0 143 31" fill="none" xmlns="http://www.w3.org/2000/svg">
<path d="M133.734 16.6048L138.015 6.88285H142.63L132.332 30.27H127.717L131.427 21.8419L124.858 6.88285H129.473L133.734 16.6048Z" fill="#06386A"/>
<path fill-rule="evenodd" clip-rule="evenodd" d="M99.9277 6.50444C101.466 6.50444 102.741 6.77967 103.751 7.33077C104.761 7.88185 105.519 8.63962 106.024 9.604C106.529 10.5684 106.782 11.6706 106.782 12.9104V23.7261H103.2L102.841 22.5343C102.643 22.727 102.43 22.9067 102.201 23.0713C101.168 23.8291 99.8588 24.2082 98.2745 24.2082C97.0345 24.2082 95.9437 23.9785 95.0022 23.5192C94.0608 23.037 93.3373 22.3708 92.8322 21.5213C92.3271 20.6488 92.0748 19.6386 92.0748 18.4906C92.0748 17.3425 92.3388 16.3433 92.8669 15.4937C93.418 14.6442 94.1641 13.9897 95.1054 13.5305C96.0468 13.0483 97.1147 12.8073 98.3087 12.8073C99.939 12.8073 101.26 13.1864 102.27 13.9442V12.7731C102.27 12.1302 102.04 11.5561 101.581 11.0509C101.122 10.5458 100.376 10.293 99.3424 10.293C98.6995 10.293 97.9872 10.3733 97.2065 10.534C96.4259 10.6718 95.6107 10.9476 94.7612 11.3609L93.418 8.05394C94.4053 7.57176 95.4502 7.19314 96.5523 6.9176C97.6774 6.64206 98.8025 6.50444 99.9277 6.50444ZM99.5145 16.2174C98.6879 16.2174 98.0217 16.4241 97.5165 16.8374C97.0115 17.2278 96.7592 17.7789 96.7592 18.4906C96.7592 19.1794 97.0114 19.7306 97.5165 20.1439C98.0217 20.5572 98.6879 20.7639 99.5145 20.7639C100.341 20.7639 101.007 20.5571 101.512 20.1439C102.017 19.7306 102.27 19.1794 102.27 18.4906C102.27 17.7788 102.017 17.2278 101.512 16.8374C101.007 16.4241 100.341 16.2174 99.5145 16.2174Z" fill="#06386A"/>
<path fill-rule="evenodd" clip-rule="evenodd" d="M34.5616 6.50444C36.3067 6.50444 37.834 6.88303 39.1428 7.64078C40.4746 8.37557 41.5076 9.40911 42.2424 10.7409C42.9772 12.0497 43.3451 13.5765 43.3451 15.3216C43.3451 17.0667 42.9772 18.6052 42.2424 19.937C41.5076 21.2458 40.4746 22.2794 39.1428 23.0371C37.834 23.7719 36.3067 24.1393 34.5616 24.1393C32.8166 24.1392 31.2779 23.7719 29.9462 23.0371C28.6374 22.2794 27.6156 21.2458 26.8808 19.937C26.1461 18.6052 25.7787 17.0666 25.7787 15.3216C25.7787 13.5766 26.1461 12.0497 26.8808 10.7409C27.6156 9.40914 28.6374 8.37556 29.9462 7.64078C31.2779 6.88305 32.8166 6.50447 34.5616 6.50444ZM34.5616 10.8441C33.3218 10.8441 32.3117 11.2575 31.531 12.0841C30.7732 12.8878 30.3941 13.9556 30.3941 15.2874C30.3941 16.6191 30.7733 17.6982 31.531 18.5248C32.3117 19.3514 33.3218 19.7649 34.5616 19.7649C35.8016 19.7649 36.8121 19.3515 37.5928 18.5248C38.3735 17.6982 38.7639 16.6304 38.7639 15.3216C38.7639 13.9898 38.3734 12.9107 37.5928 12.0841C36.8121 11.2575 35.8016 10.8441 34.5616 10.8441Z" fill="#06386A"/>
<path fill-rule="evenodd" clip-rule="evenodd" d="M81.9789 6.50444C83.678 6.50444 85.1476 6.88309 86.3875 7.64078C87.6504 8.39853 88.6266 9.44329 89.3155 10.7751C90.0044 12.0839 90.3487 13.5882 90.3487 15.2874C90.3487 15.5398 90.3374 15.7923 90.3145 16.0447C90.3145 16.2744 90.2915 16.4698 90.2455 16.6306H77.8658C77.9519 17.7429 78.3238 18.6383 78.9825 19.317C79.7632 20.0747 80.8193 20.4538 82.151 20.4539C83.3219 20.4539 84.2405 20.2128 84.9064 19.7307C85.5722 19.2485 86.1464 18.6513 86.6285 17.9396L89.7629 19.7307C89.0051 21.1312 87.972 22.2105 86.6633 22.9682C85.3774 23.703 83.8159 24.0703 81.9789 24.0703C80.3027 24.0703 78.8333 23.7142 77.5704 23.0024C76.3074 22.2676 75.3312 21.2458 74.6423 19.937C73.9535 18.6282 73.6091 17.0896 73.6091 15.3216C73.6092 13.5766 73.9536 12.0497 74.6423 10.7409C75.3312 9.40909 76.3074 8.37557 77.5704 7.64078C78.8332 6.88308 80.3027 6.50444 81.9789 6.50444ZM81.9789 10.0519C80.739 10.0519 79.7403 10.4423 78.9825 11.223C78.4403 11.7652 78.0929 12.4426 77.9387 13.2552H85.9715C85.8048 12.5434 85.5195 11.9232 85.1132 11.3951C84.4473 10.4996 83.4026 10.0519 81.9789 10.0519Z" fill="#06386A"/>
<path d="M7.40105 17.4939L10.8151 6.88285H14.4657L17.8977 17.5516L20.8723 6.88285H25.1777L20.0112 23.7261H16.0158L12.6376 13.5333L9.23086 23.7261H5.13174L0 6.88285H4.44276L7.40105 17.4939Z" fill="#06386A"/>
<path d="M54.1798 6.50444C54.5471 6.50445 54.8799 6.52695 55.1783 6.57283C55.4768 6.61876 55.7065 6.69964 55.8672 6.81445V10.913H54.7651C53.2726 10.913 52.1244 11.154 51.3208 11.6362C51.0383 11.7976 50.7863 11.9937 50.5634 12.2231V23.7261H46.0511V6.88285H49.4265L49.8666 8.6835C49.9859 8.55664 50.1151 8.42702 50.2534 8.295C50.7814 7.81296 51.3783 7.39986 52.0439 7.05551C52.7328 6.68812 53.445 6.50444 54.1798 6.50444Z" fill="#06386A"/>
<path d="M62.9404 13.2171L68.6579 6.88285H73.7902L66.6454 14.877L73.9276 23.7261H68.6237L62.9404 16.8386V23.7261H58.4628V0.269997H62.9404V13.2171Z" fill="#06386A"/>
<path d="M123.177 10.3961L115.201 19.6959H123.315V23.7261H109.675V20.2128L117.647 10.913H109.882V6.88285H123.177V10.3961Z" fill="#06386A"/>
</svg>
