<svg xmlns="http://www.w3.org/2000/svg" version="1.1" xmlns:xlink="http://www.w3.org/1999/xlink" width="1000" height="1000"><g clip-path="url(#SvgjsClipPath1036)"><rect width="1000" height="1000" fill="#ffffff"></rect><g transform="matrix(7.8125,0,0,7.8125,0,0)"><svg xmlns="http://www.w3.org/2000/svg" version="1.1" xmlns:xlink="http://www.w3.org/1999/xlink" width="128" height="128"><svg version="1.1" id="Layer_1" xmlns="http://www.w3.org/2000/svg" xmlns:xlink="http://www.w3.org/1999/xlink" x="0px" y="0px" viewBox="0 0 128 128" style="enable-background:new 0 0 128 128;" xml:space="preserve">
<style type="text/css">
	.st0{fill:#1B75BC;}
	.st1{fill:#FF7F3F;}
</style>
<g>
	<path class="st0" d="M64.1,37.8L29.3,72.6L15.6,58.8c-2.9-2.9-7.5-2.9-10.4,0L0,64l23.9,23.9c3,3,7.8,3,10.8,0l39.7-39.7L64.1,37.8
		z"></path>
	<path class="st0" d="M112.4,58.8L98.7,72.6l-21-21L67.3,62l26,26c3,3,7.8,3,10.8,0L128,64l-5.2-5.2C119.9,56,115.3,56,112.4,58.8z"></path>
	<polygon class="st1" points="44,85.3 84,85.3 64,65.2 	"></polygon>
</g>
</svg></svg></g></g><defs><clipPath id="SvgjsClipPath1036"><rect width="1000" height="1000" x="0" y="0" rx="350" ry="350"></rect></clipPath></defs></svg>