<svg xmlns="http://www.w3.org/2000/svg" width="25.053" height="22.855" viewBox="0 0 25.053 22.855"><defs><style>.a{fill:#e8b949;}</style></defs><g transform="translate(-38.719 0)"><path class="a" d="M42.252,256.775h9.495a5.241,5.241,0,0,1-1.365-3.533v-1.468H44.551a6.792,6.792,0,0,1-5.426-2.961q-.213-.283-.4-.585v5.014A3.536,3.536,0,0,0,42.252,256.775Z" transform="translate(-0.001 -233.921)"/><ellipse class="a" cx="1.367" cy="2.111" rx="1.367" ry="2.111" transform="translate(43.183 5.951)"/><path class="a" d="M38.719,8.062a9.681,9.681,0,0,0,1.788,5.794,4.736,4.736,0,0,0,8.086,0,9.681,9.681,0,0,0,1.788-5.794,9.682,9.682,0,0,0-1.788-5.794,4.736,4.736,0,0,0-8.086,0,9.681,9.681,0,0,0-1.788,5.794ZM42.28,5.439a2.725,2.725,0,0,1,4.54,0,4.384,4.384,0,0,1,.827,2.623,4.384,4.384,0,0,1-.827,2.623,2.725,2.725,0,0,1-4.54,0,4.384,4.384,0,0,1-.827-2.623,4.383,4.383,0,0,1,.827-2.623Z" transform="translate(0 0)"/><path class="a" d="M229.487,8.062A9.681,9.681,0,0,0,227.7,2.269,5.111,5.111,0,0,0,223.656,0H214.57a8.534,8.534,0,0,1,1.121,1.231,11.415,11.415,0,0,1,2.134,6.831,11.415,11.415,0,0,1-2.134,6.831,8.541,8.541,0,0,1-1.121,1.231h9.086a5.111,5.111,0,0,0,4.043-2.269,9.681,9.681,0,0,0,1.788-5.794Z" transform="translate(-165.715 0)"/></g></svg>