<svg xmlns="http://www.w3.org/2000/svg" width="16" height="16" viewBox="0 0 16 16"><defs><style>.a{fill:none;}.b{fill:#fff;}</style></defs><g transform="translate(15.586) rotate(90)"><path class="a" d="M0,0H16V16H0Z" transform="translate(0 -0.414)"/><path class="b" d="M5.287,0a5.287,5.287,0,1,0,5.288,5.287A5.287,5.287,0,0,0,5.287,0Zm1.1,8.194q-.408.161-.651.245a1.718,1.718,0,0,1-.565.085A1.126,1.126,0,0,1,4.4,8.283a.779.779,0,0,1-.273-.612,2.222,2.222,0,0,1,.02-.295c.014-.1.036-.213.066-.34l.341-1.2c.03-.115.056-.225.077-.327a1.451,1.451,0,0,0,.03-.283A.436.436,0,0,0,4.568,4.9a.539.539,0,0,0-.364-.09.955.955,0,0,0-.271.04c-.092.028-.171.054-.237.079l.09-.371q.334-.136.64-.233A1.891,1.891,0,0,1,5,4.229a1.1,1.1,0,0,1,.757.237.788.788,0,0,1,.266.616q0,.079-.018.276a1.848,1.848,0,0,1-.068.363L5.6,6.921c-.028.1-.052.206-.075.329a1.742,1.742,0,0,0-.033.28.4.4,0,0,0,.107.326.6.6,0,0,0,.37.087,1.074,1.074,0,0,0,.28-.043,1.593,1.593,0,0,0,.226-.076Zm-.06-4.869a.809.809,0,0,1-.571.22.817.817,0,0,1-.573-.22.7.7,0,0,1-.239-.534.71.71,0,0,1,.239-.535.811.811,0,0,1,.573-.222.8.8,0,0,1,.571.222.721.721,0,0,1,0,1.069Z" transform="translate(3 12.586) rotate(-90)"/></g></svg>