<svg xmlns="http://www.w3.org/2000/svg" width="28.917" height="28.723" viewBox="0 0 28.917 28.723"><defs><style>.a{fill:#5769e3;}</style></defs><g transform="translate(-10 -101.078)"><path class="a" d="M380,101.079s7.96-.148,11.366,3.561a15.5,15.5,0,0,1,4.23,10.822s0,7.492-4.194,10.75c-3.7,2.877-11.4,3.589-11.4,3.589s8.86-2.128,8.932-14.113C388.932,115.688,389.418,104.358,380,101.079Z" transform="translate(-356.679)"/><path class="a" d="M141.093,259.2c-3.471,0-6.293,3.888-6.293,8.669s2.823,8.669,6.293,8.669,6.293-3.888,6.293-8.669S144.564,259.2,141.093,259.2Z" transform="translate(-120.307 -152.43)"/><path class="a" d="M20.786,101.3C14.831,101.3,10,107.726,10,115.654s4.831,14.354,10.786,14.354,10.786-6.426,10.786-14.354S26.741,101.3,20.786,101.3Zm0,24.823c-4.461,0-8.09-4.7-8.09-10.469s3.629-10.466,8.09-10.466,8.09,4.695,8.09,10.466S25.247,126.123,20.786,126.123Z" transform="translate(0 -0.214)"/></g></svg>