<svg xmlns="http://www.w3.org/2000/svg" width="26.875" height="17.298" viewBox="0 0 26.875 17.298"><defs><style>.a{fill:#2da8af;}</style></defs><ellipse class="a" cx="1.467" cy="2.265" rx="1.467" ry="2.265" transform="translate(4.788 6.384)"/><path class="a" d="M38.719,8.649a10.385,10.385,0,0,0,1.918,6.215,5.081,5.081,0,0,0,8.674,0,10.385,10.385,0,0,0,1.918-6.215,10.386,10.386,0,0,0-1.918-6.215,5.081,5.081,0,0,0-8.674,0,10.385,10.385,0,0,0-1.918,6.215Zm3.82-2.814a2.923,2.923,0,0,1,4.87,0A4.7,4.7,0,0,1,48.3,8.649a4.7,4.7,0,0,1-.887,2.814,2.923,2.923,0,0,1-4.87,0,4.7,4.7,0,0,1-.887-2.814A4.7,4.7,0,0,1,42.539,5.835Z" transform="translate(-38.719 0)"/><path class="a" d="M-5176.052-518.211h-2.342a21.278,21.278,0,0,0,1.535-2.8,15.092,15.092,0,0,0,1.513-5.968c0-4.267-2.812-8.491-2.84-8.533h2.276l.15,0c.12.173,2.924,4.279,2.924,8.531s-3.183,8.719-3.215,8.763Zm-3,0h-2.343a21.278,21.278,0,0,0,1.535-2.8,15.092,15.092,0,0,0,1.513-5.968c0-4.267-2.811-8.491-2.839-8.533h2.424c.121.177,2.926,4.335,2.926,8.533,0,4.252-3.183,8.719-3.215,8.763Zm-3,0h-3.6a9.071,9.071,0,0,0,1.2-1.321,12.238,12.238,0,0,0,2.289-7.327,12.24,12.24,0,0,0-2.289-7.328,9.187,9.187,0,0,0-1.2-1.321h3.9c.121.177,2.925,4.335,2.925,8.533,0,4.252-3.183,8.719-3.215,8.763Zm6.679-.032v0c.31-.463,3.025-4.645,3.025-8.73,0-4.034-2.51-8.026-2.8-8.468a5.734,5.734,0,0,1,3.571,2.369,10.389,10.389,0,0,1,1.918,6.216,10.381,10.381,0,0,1-1.918,6.214,5.634,5.634,0,0,1-3.8,2.4Z" transform="translate(5196.53 535.508)"/></svg>